<svg width="16" height="16" viewBox="0 0 16 16" fill="none" xmlns="http://www.w3.org/2000/svg">
<path d="M2.31421 4.47412L0 10.1819H1.67521L2.0897 9.1889H4.47299L4.93066 10.1819H6.63177L4.05851 4.47412H2.31421ZM3.18636 6.08889L3.99806 8.04906H2.46101L3.18636 6.08889ZM4.9285 4.47412L8.07816 11.5258L11.3314 4.47412H9.61089L8.07816 7.92817L6.62746 4.47412H4.9285ZM14.3775 4.47412H12.141L9.61089 10.1819H11.3293L12.2424 8.13325H12.6353L13.1772 10.1819H14.9388L14.1443 7.92817C16.5198 7.58883 16.6331 4.57285 14.3775 4.47412ZM13.419 6.93513H12.6688L13.2808 5.57078H13.8939C14.6806 5.69077 14.5237 6.88495 13.419 6.93513Z" fill="#BDBDBD"/>
</svg>
