<svg width="16" height="16" viewBox="0 0 16 16" fill="none" xmlns="http://www.w3.org/2000/svg">
<path d="M9.79998 6.59999C9.75218 6.14531 9.54204 5.72312 9.2081 5.41086C8.87417 5.0986 8.43884 4.91722 7.98198 4.89999C6.34398 4.85999 5.49998 6.14299 5.49998 7.97699C5.49998 9.81099 6.43098 11.277 8.02798 11.277C9.62498 11.277 9.79998 9.44499 9.79998 9.44499L12.86 9.62799C12.8913 10.1646 12.8096 10.7018 12.6201 11.2048C12.4306 11.7078 12.1376 12.1654 11.76 12.548C11.2334 13.0442 10.6122 13.4293 9.93361 13.6803C9.25498 13.9313 8.53274 14.0431 7.80998 14.009C7.06036 14.0796 6.30441 13.9828 5.59675 13.7257C4.88909 13.4685 4.24738 13.0574 3.71798 12.522C3.13574 11.9523 2.68141 11.2652 2.3852 10.5064C2.08898 9.74763 1.95767 8.93447 1.99998 8.12099C1.94668 7.22174 2.1021 6.32234 2.45408 5.49312C2.80607 4.66389 3.34508 3.92732 4.02898 3.34099C5.02807 2.47393 6.30712 1.99762 7.62998 1.99999C8.95142 1.92458 10.2504 2.36586 11.2525 3.23058C12.2546 4.09531 12.8812 5.31574 13 6.63399L9.79998 6.59999Z" fill="#E84140"/>
</svg>
