<svg width="16" height="16" viewBox="0 0 16 16" fill="none" xmlns="http://www.w3.org/2000/svg">
<path d="M9.63999 8.6425L9.89979 8.41875C9.68405 8.4714 9.46488 8.47254 9.24399 8.45251C8.97903 8.45595 9.29434 8.58928 9.63999 8.6425ZM10.6666 8.09743C10.8246 7.8794 10.9396 7.64105 10.9802 7.39441C10.9447 7.57009 10.8492 7.72174 10.7593 7.88197C10.2637 8.19385 10.713 7.69656 10.7593 7.50772C10.2266 8.1784 10.6861 7.9103 10.6666 8.09743ZM11.1919 6.73116C11.224 6.2539 11.0981 6.40441 11.0557 6.58696C11.105 6.61271 11.1444 6.92344 11.1919 6.73116ZM8.23853 0.205726C8.37988 0.230905 8.54412 0.250362 8.52123 0.284125C8.67574 0.250362 8.71122 0.218888 8.23853 0.205726ZM8.15355 10.1624C7.77186 9.98387 7.42249 9.71376 7.13522 9.38357C7.28744 9.60675 7.45225 9.82364 7.66456 9.99417C7.30461 9.87228 6.82449 9.12262 6.68428 9.09229C7.30461 10.2025 9.19992 11.0391 10.1928 10.6242C9.73326 10.6408 9.15014 10.6334 8.63396 10.4428C8.43539 10.3404 8.17215 10.1384 8.16986 10.072C8.16013 10.0977 8.14325 10.1235 8.15355 10.1624ZM13.8687 5.7177C13.8733 5.47449 13.9359 5.58894 13.9605 5.52885C13.9125 5.50139 13.7871 5.31483 13.711 4.95717C13.7665 4.87305 13.8587 5.1752 13.9342 5.18779C13.8856 4.90338 13.8026 4.68649 13.7991 4.46789C13.5794 4.00837 13.7213 4.52912 13.5428 4.27046C13.3087 3.54026 13.7368 4.10107 13.766 3.76974C14.1208 4.28362 14.3228 5.07963 14.4155 5.40982C14.3445 5.00753 14.2301 4.61839 14.0904 4.24128C14.198 4.28649 13.917 3.41379 14.2306 3.99177C13.8959 2.75971 12.7977 1.60833 11.7871 1.06812C11.9107 1.18142 12.0669 1.32334 12.0108 1.34566C11.5084 1.04637 11.5965 1.02291 11.525 0.897012C11.1153 0.730485 11.0889 0.910174 10.8177 0.897584C10.0463 0.488421 9.8975 0.531912 9.18733 0.275542L9.21995 0.426617C8.70892 0.256657 8.62423 0.491282 8.072 0.427189C8.03824 0.400866 8.24883 0.332195 8.42222 0.307016C7.92779 0.372253 7.95126 0.209732 7.4677 0.324755C7.58673 0.241206 7.71263 0.185697 7.84024 0.114737C7.43737 0.139344 6.87828 0.349362 7.05053 0.158229C6.393 0.451796 5.2256 0.863249 4.57037 1.47785L4.54976 1.33994C4.24933 1.70046 3.24044 2.41635 3.16033 2.88331L3.08021 2.9022C2.92398 3.16658 2.8227 3.46644 2.69909 3.73884C2.49479 4.08677 2.39923 3.87274 2.42841 3.92711C2.02669 4.742 1.82697 5.42642 1.65472 5.9878C1.77776 6.1715 1.65758 7.0934 1.70393 7.83161C1.50193 11.4763 4.26192 15.0146 7.27828 15.8318C7.72064 15.9897 8.37816 15.984 8.93725 16C8.27744 15.8112 8.19218 15.8999 7.54953 15.6761C7.086 15.4575 6.98414 15.2086 6.65567 14.9236L6.78557 15.1531C6.14121 14.9253 6.41074 14.8709 5.88656 14.705L6.02561 14.5236C5.81674 14.5076 5.47281 14.1716 5.37839 13.9857L5.15006 13.9948C4.87538 13.656 4.72945 13.4123 4.74033 13.2234L4.66651 13.355C4.58296 13.2114 3.65705 12.0852 4.13717 12.3473C4.0479 12.2655 3.92944 12.2145 3.80068 11.981L3.89854 11.8695C3.66735 11.5719 3.47335 11.1908 3.48766 11.0637C3.61126 11.2302 3.69653 11.2611 3.78122 11.2898C3.19752 9.84138 3.1649 11.2102 2.72255 9.81563L2.81583 9.80819C2.7443 9.70003 2.7008 9.58272 2.64301 9.46769L2.68364 9.06196C2.2636 8.57612 2.56632 6.99555 2.62698 6.12915C2.66876 5.77664 2.97778 5.40124 3.2124 4.81296L3.06934 4.78835C3.34288 4.31109 4.63103 2.87244 5.22789 2.94626C5.51688 2.58345 5.17066 2.94512 5.11401 2.85356C5.74864 2.19661 5.94836 2.38946 6.37698 2.271C6.83879 1.99689 5.98041 2.37801 6.19958 2.16628C6.99845 1.96255 6.76554 1.70275 7.80762 1.59917C7.91749 1.66155 7.55239 1.69588 7.46083 1.77714C8.12637 1.45153 9.56674 1.52535 10.5024 1.95797C11.5879 2.46557 12.808 3.96488 12.8561 5.37606L12.911 5.39094C12.8835 5.95175 12.9968 6.60069 12.8 7.19641L12.9339 6.91429C12.9493 7.34291 12.8086 7.55121 12.681 7.91917L12.4515 8.03362C12.2638 8.39757 12.4698 8.26481 12.3353 8.55437C12.0423 8.81475 11.4472 9.36869 11.2566 9.41905C11.1175 9.41619 11.351 9.25481 11.3814 9.19187C10.9899 9.46083 11.0672 9.59588 10.468 9.75954L10.4503 9.72063C8.97216 10.4159 6.91948 9.03793 6.94637 7.15807C6.93035 7.27767 6.90174 7.24734 6.86855 7.29598C6.79244 6.3283 7.31548 5.35718 8.19733 4.9606C9.06029 4.5337 10.0715 4.70881 10.6895 5.2845C10.3502 4.83986 9.67432 4.36832 8.87373 4.41238C8.08917 4.42497 7.35554 4.92341 7.11061 5.46419C6.70889 5.71713 6.66196 6.43931 6.48685 6.5715C6.25108 8.30315 6.92978 9.05109 8.0783 9.93122C8.171 9.9936 8.18273 10.0279 8.17472 10.06C9.52925 10.5659 10.9293 10.4422 12.1013 9.5026C12.3994 9.27026 12.725 8.87541 12.8194 8.86969C12.6775 9.08314 12.8435 8.97212 12.7347 9.16039C13.0317 8.68141 12.6054 8.96525 13.042 8.33291L13.2034 8.55495C13.1433 8.15723 13.6973 7.67424 13.6412 7.04533C13.7682 6.85305 13.7307 7.49594 13.6481 7.69484C13.8352 7.20385 13.6973 7.12488 13.7453 6.71972C13.7974 6.85592 13.8655 7.0007 13.9004 7.14433C13.7785 6.66993 14.0252 6.34546 14.0864 6.06964C14.0263 6.04274 13.8979 6.27794 13.8687 5.7177ZM6.31289 9.00188C6.48686 9.23879 6.62534 9.49516 6.84795 9.68C6.68772 9.36755 6.56926 9.23822 6.35009 8.81589C6.27664 8.78305 6.28186 8.89536 6.31289 9.00188ZM6.76211 8.79987C6.66998 8.69801 6.61504 8.57497 6.55438 8.45251C6.61275 8.66768 6.73235 8.85195 6.84394 9.04022L6.76211 8.79987ZM13.5496 8.78785C13.8106 8.29686 13.98 7.76008 14.0504 7.21587L14.0115 7.31372C13.9399 7.82074 13.786 8.32261 13.5496 8.78785ZM8.92181 0C8.67402 0.0206012 8.42738 0.0329048 8.1836 0.0643788L8.29118 0.0792575C8.4703 0.013448 8.73182 0.0429192 8.92181 0ZM2.07133 3.70336C2.25559 3.28904 2.02039 3.55457 1.99979 3.44412C2.02841 3.81209 1.71653 3.95114 2.07133 3.70336ZM1.70451 4.639C1.47503 4.93256 1.59864 4.99494 1.57461 5.19466C1.65758 4.93943 1.67246 4.78664 1.70451 4.639Z" fill="#D0094D"/>
</svg>
