<svg width="16" height="16" viewBox="0 0 16 16" fill="none" xmlns="http://www.w3.org/2000/svg">
<path d="M14.718 7.35598L8.60001 1.24098C8.51638 1.15693 8.41696 1.09023 8.30748 1.04471C8.19799 0.999199 8.08058 0.975769 7.96201 0.975769C7.84344 0.975769 7.72604 0.999199 7.61655 1.04471C7.50706 1.09023 7.40764 1.15693 7.32401 1.24098L6.05401 2.51098L7.66801 4.12198C7.85791 4.05732 8.06215 4.0473 8.25746 4.09304C8.45278 4.13879 8.63132 4.23848 8.77275 4.38074C8.91418 4.523 9.01281 4.70213 9.05741 4.89771C9.10201 5.09329 9.09078 5.29747 9.02501 5.48698L10.577 7.03998C10.8088 6.96043 11.0609 6.96273 11.2913 7.04648C11.5216 7.13024 11.7163 7.2904 11.8429 7.50027C11.9695 7.71014 12.0203 7.95706 11.987 8.19987C11.9536 8.44268 11.838 8.66673 11.6595 8.83469C11.481 9.00264 11.2504 9.10436 11.006 9.12288C10.7616 9.14141 10.5182 9.07563 10.3164 8.93651C10.1146 8.79738 9.96663 8.59332 9.89705 8.35831C9.82746 8.1233 9.84051 7.87154 9.93401 7.64498L8.48701 6.19998V10.01C8.70545 10.12 8.87963 10.3016 8.98059 10.5244C9.08155 10.7472 9.10321 10.9978 9.04196 11.2346C8.98071 11.4714 8.84025 11.6801 8.64393 11.826C8.44761 11.9719 8.20726 12.0462 7.96285 12.0366C7.71844 12.0269 7.4847 11.9339 7.30048 11.773C7.11627 11.6121 6.99269 11.393 6.95029 11.1521C6.90789 10.9112 6.94923 10.663 7.06744 10.4489C7.18564 10.2347 7.37358 10.0675 7.60001 9.97498V6.12998C7.4691 6.07619 7.35011 5.99706 7.24988 5.89713C7.14965 5.7972 7.07017 5.67844 7.01599 5.54769C6.96181 5.41694 6.93401 5.27677 6.93418 5.13523C6.93436 4.9937 6.96251 4.8536 7.01701 4.72298L5.43401 3.13498L1.24101 7.32698C1.15696 7.41061 1.09026 7.51003 1.04474 7.61952C0.99923 7.72901 0.9758 7.84641 0.9758 7.96498C0.9758 8.08355 0.99923 8.20096 1.04474 8.31044C1.09026 8.41993 1.15696 8.51935 1.24101 8.60298L7.35601 14.718C7.43964 14.802 7.53906 14.8687 7.64855 14.9142C7.75804 14.9598 7.87544 14.9832 7.99401 14.9832C8.11258 14.9832 8.22999 14.9598 8.33948 14.9142C8.44896 14.8687 8.54838 14.802 8.63201 14.718L14.718 8.63198C14.8021 8.54835 14.8688 8.44893 14.9143 8.33945C14.9598 8.22996 14.9832 8.11255 14.9832 7.99398C14.9832 7.87541 14.9598 7.75801 14.9143 7.64852C14.8688 7.53903 14.8021 7.43961 14.718 7.35598Z" fill="#D52A29"/>
</svg>
