<svg width="16" height="16" viewBox="0 0 16 16" fill="none" xmlns="http://www.w3.org/2000/svg">
<path d="M11.8473 7.38972L10.6163 7.38972L10.6163 5.4536L11.8474 5.4536L11.8473 7.38972ZM0 12.9477L2.27753 13.0906L2.27753 12.0249L0 12.1469V12.9477ZM11.8474 2.38556H10.6163L10.6163 4.32168H11.8474L11.8474 2.38556ZM14.3756 2.9428L12.0981 2.82081L12.0981 3.88644L14.3756 3.74356L14.3756 2.9428ZM0 9.87964L2.27753 10.0225V8.95689L0 9.07887V9.87964ZM14.3756 6.01084L12.0981 5.88885L12.0981 6.95449L14.3756 6.81161L14.3756 6.01084ZM2.54917 10.4578H3.92247L3.92247 8.52164L2.54917 8.52164L2.54917 10.4578ZM1.90625e-06 6.8116L2.27754 6.95448V5.88884L1.90625e-06 6.01083V6.8116ZM2.54917 7.38972H3.92247L3.92247 5.4536L2.54917 5.4536L2.54917 7.38972ZM10.3433 7.77112L10.3433 1.96612C10.3433 1.62836 10.0695 1.35456 9.73174 1.35456L4.76847 1.35455C4.43072 1.35455 4.15691 1.62836 4.15691 1.96612L4.15691 14.0339C4.15691 14.3717 4.43071 14.6455 4.76847 14.6455H6.83566C3.50749 12.5075 5.5133 8.68773 10.3433 7.77112ZM2.54917 4.32168H3.92247L3.92248 2.38556L2.54918 2.38556L2.54917 4.32168ZM2.54917 13.5258L3.92247 13.5258L3.92247 11.5897L2.54917 11.5897L2.54917 13.5258ZM3.81562e-06 3.74355L2.27754 3.88644V2.8208L5.72187e-06 2.94279L3.81562e-06 3.74355ZM9.27462 10.793C9.42783 10.793 9.49135 10.8685 9.49135 10.9912V12.4313H10.0119V10.9885C10.0119 10.6956 9.85615 10.3731 9.39883 10.3731L8.32214 10.372V12.4313H8.84366V10.793L9.27462 10.793ZM12.7686 11.2078H11.9662C11.9654 10.6417 12.7811 10.6022 12.7686 11.2078ZM12.4126 10.3371C11.8644 10.3371 11.4473 10.7208 11.4473 11.3987C11.4473 12.1921 11.925 12.4643 12.4243 12.4643C12.8056 12.4643 13.022 12.3407 13.2283 12.137L12.9061 11.8295C12.5712 12.1865 11.9504 12.0519 11.9662 11.5627H13.2891C13.3363 10.8118 13.0094 10.3482 12.4126 10.3371ZM11.3151 12.4287V11.9942H11.1033C10.9791 11.9942 10.9226 11.9278 10.9226 11.8082V10.793H11.3151V10.372H10.9226V9.81092H10.4019V11.8408C10.4019 12.133 10.5822 12.4287 11.007 12.4287H11.3151ZM7.85811 9.5886H7.33301V10.0874H7.85811V9.5886ZM7.85943 10.372H7.33301L7.33244 11.9014C7.33244 12.1766 7.4662 12.4152 7.85943 12.4529L7.85943 10.372ZM14.1179 9.51762H13.5924V11.8581C13.5924 12.133 13.7255 12.3711 14.1179 12.4089V9.51762ZM14.4751 12.4295V11.875C15.1868 11.4512 15.5853 10.7139 15.4598 10.0067C15.0848 7.86799 10.9685 7.85921 8.06612 9.35078V9.15552C10.9714 7.38683 15.4789 7.53382 15.9551 9.85586C16.2102 11.0998 15.3317 12.1161 14.4751 12.4295ZM14.2801 12.8317V13.6001C13.2947 14.1409 11.8772 14.4891 10.7943 14.5948C8.05708 14.8608 6.26378 14.0598 5.92868 12.6463C5.66612 11.544 6.12218 10.6111 6.9625 9.87425V10.1462C6.49571 10.6548 6.14384 11.4736 6.28695 12.246C6.57931 13.8128 8.6688 14.1039 10.6739 13.9185C11.9063 13.8044 13.3859 13.3641 14.2801 12.8317Z" fill="#FF8A65"/>
</svg>
