<svg width="16" height="16" viewBox="0 0 16 16" fill="none" xmlns="http://www.w3.org/2000/svg">
<g clip-path="url(#clip0_1_3585)">
<path d="M9.76217 12.5362C9.8032 12.5759 9.87422 12.7113 9.78774 12.883C9.73913 12.9739 9.6861 13.0371 9.59331 13.1122C9.48031 13.2024 9.26063 13.3066 8.95889 13.1147C8.79665 13.0124 8.78592 12.9777 8.56246 13.0074C8.40275 13.0276 8.33899 12.8654 8.39643 12.7315C8.45451 12.5977 8.68997 12.4898 8.98414 12.6615C9.1167 12.7391 9.3225 12.9039 9.50241 12.7574C9.57753 12.6981 9.62235 12.6583 9.72587 12.5384C9.73443 12.5294 9.7486 12.5272 9.76217 12.5362ZM8.92164 3.74865C9.05547 3.78716 9.21139 3.81178 9.37678 3.81556C9.89063 3.82629 10.3154 3.64141 10.3167 3.40209C10.3182 3.14636 9.88979 2.96425 9.42969 2.94775C9.06931 2.93482 8.59046 3.02132 8.33331 3.16284C8.3073 3.17607 8.31931 3.20875 8.34404 3.20892C8.39851 3.20327 8.43378 3.19401 8.5069 3.18809C9.00308 3.13822 9.42097 3.22091 9.4418 3.37178C9.45695 3.48604 9.24043 3.60725 8.92164 3.6811C8.88428 3.68808 8.88491 3.74044 8.92164 3.74865ZM7.17399 4.21831C6.78324 4.21831 6.50391 4.26944 6.2615 4.27575C6.0191 4.28207 5.83161 4.10405 5.7445 3.99484C5.67316 3.90583 5.44338 3.82061 5.31839 4.10721C5.19214 4.39696 5.42571 4.70817 5.61887 4.7492C5.61887 4.7492 5.94082 5.34638 6.18449 5.08567C6.35745 4.90197 6.4534 4.80286 7.37757 4.73595C7.81756 4.70312 7.86301 4.60149 7.84913 4.49354C7.83461 4.36603 7.56979 4.21831 7.17399 4.21831ZM2.31042 11.1597C2.61399 11.0046 3.02716 11.0601 3.22512 11.3951C3.34223 11.5933 3.44796 11.7127 3.58053 11.796C3.69478 11.8699 3.85071 11.9298 4.07354 11.9191C4.17896 11.9147 4.33804 11.8894 4.37844 11.7796C4.42389 11.654 4.36708 11.5593 4.21305 11.4961C3.99716 11.4059 3.93845 11.2727 3.82419 11.0694C3.70867 10.8655 3.45995 10.7569 3.42082 10.3738C3.38231 9.99563 3.67837 9.51966 4.26355 9.67116C4.6865 9.781 4.9592 10.3031 5.0621 10.4823C5.46344 10.8942 5.53197 10.1564 5.86696 10.5846C5.96481 10.7361 6.68445 11.695 7.46343 11.7202C8.25503 11.7455 8.67735 11.5416 9.02202 11.5536C9.26379 11.5631 9.3812 11.6849 9.51945 11.7064C9.76249 11.7455 9.93545 11.5252 10.2037 11.5391C10.4203 11.5485 10.657 11.6944 10.9 11.6944C11.1431 11.6944 11.6538 11.4015 11.6474 11.522C11.6348 11.736 11.4707 12.1135 11.4309 12.2884C11.4025 12.409 11.4271 12.7019 11.3545 12.9367C11.2895 13.1759 11.0667 13.4789 11.0086 13.5654C10.8129 13.8583 10.6702 13.9473 10.5099 14.2541C10.3319 14.5988 10.0383 14.9176 9.96134 15.0205C9.86349 15.1518 10.5156 15.0167 10.7466 14.7964C10.9429 14.6108 11.2876 14.049 11.8324 13.929C12.532 13.723 12.0625 13.5759 12.2894 13.4108C12.9279 13.1529 13.7977 13.0764 14.716 13.27C15.5284 12.0176 16 10.5265 16 8.92438C15.9994 4.50743 12.4179 0.927849 8.00032 0.927849C3.58147 0.927849 0 4.5068 0 8.92375C0 9.81699 0.146453 10.6768 0.417265 11.4791C1.17188 11.492 1.66406 11.4842 2.31042 11.1597ZM11.7566 7.57726C11.7238 7.63471 11.7503 7.69594 11.8236 7.65869C12.3242 7.40177 12.4365 7.06215 12.5154 6.79702C13.8745 7.10318 14.6803 7.80987 14.5061 8.76625C14.1228 10.8709 10.6777 11.5771 7.32644 10.565C2.0408 8.96885 -0.760417 5.45816 4.27302 5.75985C4.06281 6.18911 4.07796 6.69349 4.99708 7.25532C6.12073 7.89289 8.01957 8.43767 8.53279 8.38402C8.72406 8.36508 8.89639 8.26976 8.72406 8.15487C8.55172 8.03998 8.39896 7.8102 8.30301 7.40871C8.24872 7.18525 8.18812 6.87277 6.9824 6.64362C4.39296 6.14998 4.49333 5.41897 4.56971 4.99729C4.56971 4.99729 4.79949 3.96391 4.89608 3.6003C4.9914 3.23669 5.23822 2.4028 6.90539 2.77777C7.8687 2.99492 8.38823 2.72474 8.65399 2.65719C9.37552 2.4716 10.1728 2.59975 10.6134 3.05237C11.0692 3.52139 11.6973 4.96825 11.9984 6.05024C12.2188 6.81233 12.0573 7.08837 11.7566 7.57726Z" fill="#EB1C24"/>
</g>
<defs>
<clipPath id="clip0_1_3585">
<rect width="16" height="16" fill="white"/>
</clipPath>
</defs>
</svg>
