<svg width="16" height="16" viewBox="0 0 16 16" fill="none" xmlns="http://www.w3.org/2000/svg">
<g clip-path="url(#clip0_1_4567)">
<path d="M0.603638 10.8314L0.603641 5.30728C0.603641 4.93136 0.908386 4.62662 1.28431 4.62662L14.7157 4.62662C15.0916 4.62662 15.3964 4.93137 15.3964 5.30729L15.3964 10.8314C15.3964 11.2073 15.0916 11.512 14.7157 11.512L1.2843 11.512C0.908381 11.512 0.603637 11.2073 0.603638 10.8314ZM14.6269 6C14.6269 5.66606 14.3562 5.39535 14.0222 5.39535C13.6883 5.39535 13.4176 5.66606 13.4176 6C13.4176 6.33394 13.6883 6.60465 14.0222 6.60465C14.3562 6.60465 14.6269 6.33394 14.6269 6ZM14.2489 4.36569V2.83722L12.094 2.83722L12.094 4.36569L14.2489 4.36569ZM12.094 11.8159L12.094 13.186L14.2489 13.186V11.8159L12.094 11.8159ZM13.7645 2.53489L13.6287 4.53125e-06L12.7374 4.00938e-06L12.5784 2.53489L13.7645 2.53489ZM12.5784 13.4651L12.7374 16L13.6287 16L13.7645 13.4651L12.5784 13.4651ZM10.8342 4.36569L10.8342 2.83721L8.67927 2.83721V4.36569L10.8342 4.36569ZM8.67927 11.8159L8.67927 13.186L10.8342 13.186L10.8342 11.8159L8.67927 11.8159ZM10.3497 2.53489L10.214 2.38437e-06L9.32272 1.8625e-06L9.16369 2.53488L10.3497 2.53489ZM9.16369 13.4651L9.32271 16L10.214 16L10.3497 13.4651L9.16369 13.4651ZM7.41945 4.36569L7.41945 2.83721L5.26455 2.83721L5.26455 4.36568L7.41945 4.36569ZM5.26455 11.8159L5.26455 13.186L7.41945 13.186L7.41945 11.8159L5.26455 11.8159ZM6.93502 2.53488L6.79926 4.78125e-07L5.90801 0L5.74898 2.53488L6.93502 2.53488ZM5.74897 13.4651L5.908 16L6.79925 16L6.93502 13.4651H5.74897ZM4.00473 4.36569L4.00473 2.83721L1.84984 2.83721L1.84984 4.36568L4.00473 4.36569ZM1.84984 11.8159L1.84984 13.186L4.00473 13.186L4.00473 11.8159L1.84984 11.8159ZM3.52031 2.53488L3.38454 4.78125e-07L2.49329 0L2.33426 2.53488L3.52031 2.53488ZM2.33426 13.4651L2.49328 16L3.38453 16L3.5203 13.4651H2.33426Z" fill="#96C53A"/>
</g>
<defs>
<clipPath id="clip0_1_4567">
<rect width="16" height="16" fill="white"/>
</clipPath>
</defs>
</svg>
